<svg xmlns="http://www.w3.org/2000/svg" xmlns:xlink="http://www.w3.org/1999/xlink" width="1890" height="1150.156" viewBox="0 0 1890 1150.156"><defs><linearGradient id="a" x1="1.009" y1="0.744" x2="0.009" y2="0.286" gradientUnits="objectBoundingBox"><stop offset="0" stop-color="#ee9617"/><stop offset="1" stop-color="#fe5858"/></linearGradient><clipPath id="b"><rect width="105" height="230" fill="none"/></clipPath><clipPath id="c"><rect width="382" height="41" fill="none"/></clipPath></defs><g transform="translate(0 69.159)"><path d="M1477.326,1080.651H0V-.347H1477.326Z" transform="translate(0 0.347)" fill="url(#a)"/><path d="M5500,991s210.292-285.579,327.172-531.295,189.17-528.865,189.17-528.865,68.65,174.424,132.216,313.251S6270.6,486.149,6270.6,486.149s73.227-33.563,170.864-65.091,219.683-61.023,219.683-61.023l-12.2,40.682s-109.841,25.426-195.273,58.989-149.34,70.7-149.34,70.7L6614.366,991l-215.613,13.843L6142.666,600.2s-29.7,10.028-103.948,50.709-104.755,49.835-191.2,138.318-154.591,215.614-154.591,215.614Z" transform="translate(-5170)" fill="#fff" opacity="0.08"/><path d="M6026,321.387s11.572,88.483,33.059,150.523,40.163,80.574,40.163,80.574-54.4,23.674-105.254,55.711-95.6,81.364-95.6,81.364,51.49-93.06,83.4-185.1S6026,321.387,6026,321.387Z" transform="translate(-5170)" fill="#f57d31"/><g transform="translate(1754 287)" opacity="0.11" clip-path="url(#b)"><g transform="translate(-1501 -3235)"><rect width="8" height="8" rx="4" transform="translate(1501 3235)" fill="#0095da"/></g><g transform="translate(-1483 -3235)"><rect width="8" height="8" rx="4" transform="translate(1501 3235)" fill="#0095da"/></g><g transform="translate(-1465 -3235)"><rect width="8" height="8" rx="4" transform="translate(1501 3235)" fill="#0095da"/></g><g transform="translate(-1447 -3235)"><rect width="8" height="8" rx="4" transform="translate(1501 3235)" fill="#0095da"/></g><g transform="translate(-1429 -3235)"><rect width="8" height="8" rx="4" transform="translate(1501 3235)" fill="#0095da"/></g><g transform="translate(-1411 -3235)"><rect width="8" height="8" rx="4" transform="translate(1501 3235)" fill="#0095da"/></g><g transform="translate(-1501 -3207)"><rect width="8" height="8" rx="4" transform="translate(1501 3235)" fill="#0095da"/></g><g transform="translate(-1483 -3207)"><rect width="8" height="8" rx="4" transform="translate(1501 3235)" fill="#0095da"/></g><g transform="translate(-1465 -3207)"><rect width="8" height="8" rx="4" transform="translate(1501 3235)" fill="#0095da"/></g><g transform="translate(-1447 -3207)"><rect width="8" height="8" rx="4" transform="translate(1501 3235)" fill="#0095da"/></g><g transform="translate(-1429 -3207)"><rect width="8" height="8" rx="4" transform="translate(1501 3235)" fill="#0095da"/></g><g transform="translate(-1411 -3207)"><rect width="8" height="8" rx="4" transform="translate(1501 3235)" fill="#0095da"/></g><g transform="translate(-1501 -3179)"><rect width="8" height="8" rx="4" transform="translate(1501 3235)" fill="#0095da"/></g><g transform="translate(-1483 -3179)"><rect width="8" height="8" rx="4" transform="translate(1501 3235)" fill="#0095da"/></g><g transform="translate(-1465 -3179)"><rect width="8" height="8" rx="4" transform="translate(1501 3235)" fill="#0095da"/></g><g transform="translate(-1447 -3179)"><rect width="8" height="8" rx="4" transform="translate(1501 3235)" fill="#0095da"/></g><g transform="translate(-1429 -3179)"><rect width="8" height="8" rx="4" transform="translate(1501 3235)" fill="#0095da"/></g><g transform="translate(-1411 -3179)"><rect width="8" height="8" rx="4" transform="translate(1501 3235)" fill="#0095da"/></g><g transform="translate(-1501 -3151)"><rect width="8" height="8" rx="4" transform="translate(1501 3235)" fill="#0095da"/></g><g transform="translate(-1483 -3151)"><rect width="8" height="8" rx="4" transform="translate(1501 3235)" fill="#0095da"/></g><g transform="translate(-1465 -3151)"><rect width="8" height="8" rx="4" transform="translate(1501 3235)" fill="#0095da"/></g><g transform="translate(-1447 -3151)"><rect width="8" height="8" rx="4" transform="translate(1501 3235)" fill="#0095da"/></g><g transform="translate(-1429 -3151)"><rect width="8" height="8" rx="4" transform="translate(1501 3235)" fill="#0095da"/></g><g transform="translate(-1411 -3151)"><rect width="8" height="8" rx="4" transform="translate(1501 3235)" fill="#0095da"/></g><g transform="translate(-1501 -3123)"><rect width="8" height="8" rx="4" transform="translate(1501 3235)" fill="#0095da"/></g><g transform="translate(-1483 -3123)"><rect width="8" height="8" rx="4" transform="translate(1501 3235)" fill="#0095da"/></g><g transform="translate(-1465 -3123)"><rect width="8" height="8" rx="4" transform="translate(1501 3235)" fill="#0095da"/></g><g transform="translate(-1447 -3123)"><rect width="8" height="8" rx="4" transform="translate(1501 3235)" fill="#0095da"/></g><g transform="translate(-1429 -3123)"><rect width="8" height="8" rx="4" transform="translate(1501 3235)" fill="#0095da"/></g><g transform="translate(-1411 -3123)"><rect width="8" height="8" rx="4" transform="translate(1501 3235)" fill="#0095da"/></g><g transform="translate(-1501 -3095)"><rect width="8" height="8" rx="4" transform="translate(1501 3235)" fill="#0095da"/></g><g transform="translate(-1483 -3095)"><rect width="8" height="8" rx="4" transform="translate(1501 3235)" fill="#0095da"/></g><g transform="translate(-1465 -3095)"><rect width="8" height="8" rx="4" transform="translate(1501 3235)" fill="#0095da"/></g><g transform="translate(-1447 -3095)"><rect width="8" height="8" rx="4" transform="translate(1501 3235)" fill="#0095da"/></g><g transform="translate(-1429 -3095)"><rect width="8" height="8" rx="4" transform="translate(1501 3235)" fill="#0095da"/></g><g transform="translate(-1411 -3095)"><rect width="8" height="8" rx="4" transform="translate(1501 3235)" fill="#0095da"/></g><g transform="translate(-1501 -3067)"><rect width="8" height="8" rx="4" transform="translate(1501 3235)" fill="#0095da"/></g><g transform="translate(-1483 -3067)"><rect width="8" height="8" rx="4" transform="translate(1501 3235)" fill="#0095da"/></g><g transform="translate(-1465 -3067)"><rect width="8" height="8" rx="4" transform="translate(1501 3235)" fill="#0095da"/></g><g transform="translate(-1447 -3067)"><rect width="8" height="8" rx="4" transform="translate(1501 3235)" fill="#0095da"/></g><g transform="translate(-1429 -3067)"><rect width="8" height="8" rx="4" transform="translate(1501 3235)" fill="#0095da"/></g><g transform="translate(-1411 -3067)"><rect width="8" height="8" rx="4" transform="translate(1501 3235)" fill="#0095da"/></g><g transform="translate(-1501 -3039)"><rect width="8" height="8" rx="4" transform="translate(1501 3235)" fill="#0095da"/></g><g transform="translate(-1483 -3039)"><rect width="8" height="8" rx="4" transform="translate(1501 3235)" fill="#0095da"/></g><g transform="translate(-1465 -3039)"><rect width="8" height="8" rx="4" transform="translate(1501 3235)" fill="#0095da"/></g><g transform="translate(-1447 -3039)"><rect width="8" height="8" rx="4" transform="translate(1501 3235)" fill="#0095da"/></g><g transform="translate(-1429 -3039)"><rect width="8" height="8" rx="4" transform="translate(1501 3235)" fill="#0095da"/></g><g transform="translate(-1411 -3039)"><rect width="8" height="8" rx="4" transform="translate(1501 3235)" fill="#0095da"/></g><g transform="translate(-1501 -3011)"><rect width="8" height="8" rx="4" transform="translate(1501 3235)" fill="#0095da"/></g><g transform="translate(-1483 -3011)"><rect width="8" height="8" rx="4" transform="translate(1501 3235)" fill="#0095da"/></g><g transform="translate(-1465 -3011)"><rect width="8" height="8" rx="4" transform="translate(1501 3235)" fill="#0095da"/></g><g transform="translate(-1447 -3011)"><rect width="8" height="8" rx="4" transform="translate(1501 3235)" fill="#0095da"/></g><g transform="translate(-1429 -3011)"><rect width="8" height="8" rx="4" transform="translate(1501 3235)" fill="#0095da"/></g><g transform="translate(-1411 -3011)"><rect width="8" height="8" rx="4" transform="translate(1501 3235)" fill="#0095da"/></g></g><g transform="translate(1508 1015)" opacity="0.11" clip-path="url(#c)"><g transform="translate(-1501 -3235)"><rect width="8" height="8" rx="4" transform="translate(1501 3235)" fill="#0095da"/></g><g transform="translate(-1483 -3235)"><rect width="8" height="8" rx="4" transform="translate(1501 3235)" fill="#0095da"/></g><g transform="translate(-1465 -3235)"><rect width="8" height="8" rx="4" transform="translate(1501 3235)" fill="#0095da"/></g><g transform="translate(-1447 -3235)"><rect width="8" height="8" rx="4" transform="translate(1501 3235)" fill="#0095da"/></g><g transform="translate(-1429 -3235)"><rect width="8" height="8" rx="4" transform="translate(1501 3235)" fill="#0095da"/></g><g transform="translate(-1411 -3235)"><rect width="8" height="8" rx="4" transform="translate(1501 3235)" fill="#0095da"/></g><g transform="translate(-1393 -3235)"><rect width="8" height="8" rx="4" transform="translate(1501 3235)" fill="#0095da"/></g><g transform="translate(-1375 -3235)"><rect width="8" height="8" rx="4" transform="translate(1501 3235)" fill="#0095da"/></g><g transform="translate(-1357 -3235)"><rect width="8" height="8" rx="4" transform="translate(1501 3235)" fill="#0095da"/></g><g transform="translate(-1339 -3235)"><rect width="8" height="8" rx="4" transform="translate(1501 3235)" fill="#0095da"/></g><g transform="translate(-1321 -3235)"><rect width="8" height="8" rx="4" transform="translate(1501 3235)" fill="#0095da"/></g><g transform="translate(-1303 -3235)"><rect width="8" height="8" rx="4" transform="translate(1501 3235)" fill="#0095da"/></g><g transform="translate(-1285 -3235)"><rect width="8" height="8" rx="4" transform="translate(1501 3235)" fill="#0095da"/></g><g transform="translate(-1267 -3235)"><rect width="8" height="8" rx="4" transform="translate(1501 3235)" fill="#0095da"/></g><g transform="translate(-1249 -3235)"><rect width="8" height="8" rx="4" transform="translate(1501 3235)" fill="#0095da"/></g><g transform="translate(-1231 -3235)"><rect width="8" height="8" rx="4" transform="translate(1501 3235)" fill="#0095da"/></g><g transform="translate(-1213 -3235)"><rect width="8" height="8" rx="4" transform="translate(1501 3235)" fill="#0095da"/></g><g transform="translate(-1195 -3235)"><rect width="8" height="8" rx="4" transform="translate(1501 3235)" fill="#0095da"/></g><g transform="translate(-1177 -3235)"><rect width="8" height="8" rx="4" transform="translate(1501 3235)" fill="#0095da"/></g><g transform="translate(-1159 -3235)"><rect width="8" height="8" rx="4" transform="translate(1501 3235)" fill="#0095da"/></g><g transform="translate(-1141 -3235)"><rect width="8" height="8" rx="4" transform="translate(1501 3235)" fill="#0095da"/></g><g transform="translate(-1123 -3235)"><rect width="8" height="8" rx="4" transform="translate(1501 3235)" fill="#0095da"/></g><g transform="translate(-1501 -3213)"><rect width="8" height="8" rx="4" transform="translate(1501 3235)" fill="#0095da"/></g><g transform="translate(-1483 -3213)"><rect width="8" height="8" rx="4" transform="translate(1501 3235)" fill="#0095da"/></g><g transform="translate(-1465 -3213)"><rect width="8" height="8" rx="4" transform="translate(1501 3235)" fill="#0095da"/></g><g transform="translate(-1447 -3213)"><rect width="8" height="8" rx="4" transform="translate(1501 3235)" fill="#0095da"/></g><g transform="translate(-1429 -3213)"><rect width="8" height="8" rx="4" transform="translate(1501 3235)" fill="#0095da"/></g><g transform="translate(-1411 -3213)"><rect width="8" height="8" rx="4" transform="translate(1501 3235)" fill="#0095da"/></g><g transform="translate(-1393 -3213)"><rect width="8" height="8" rx="4" transform="translate(1501 3235)" fill="#0095da"/></g><g transform="translate(-1375 -3213)"><rect width="8" height="8" rx="4" transform="translate(1501 3235)" fill="#0095da"/></g><g transform="translate(-1357 -3213)"><rect width="8" height="8" rx="4" transform="translate(1501 3235)" fill="#0095da"/></g><g transform="translate(-1339 -3213)"><rect width="8" height="8" rx="4" transform="translate(1501 3235)" fill="#0095da"/></g><g transform="translate(-1321 -3213)"><rect width="8" height="8" rx="4" transform="translate(1501 3235)" fill="#0095da"/></g><g transform="translate(-1303 -3213)"><rect width="8" height="8" rx="4" transform="translate(1501 3235)" fill="#0095da"/></g><g transform="translate(-1285 -3213)"><rect width="8" height="8" rx="4" transform="translate(1501 3235)" fill="#0095da"/></g><g transform="translate(-1267 -3213)"><rect width="8" height="8" rx="4" transform="translate(1501 3235)" fill="#0095da"/></g><g transform="translate(-1249 -3213)"><rect width="8" height="8" rx="4" transform="translate(1501 3235)" fill="#0095da"/></g><g transform="translate(-1231 -3213)"><rect width="8" height="8" rx="4" transform="translate(1501 3235)" fill="#0095da"/></g><g transform="translate(-1213 -3213)"><rect width="8" height="8" rx="4" transform="translate(1501 3235)" fill="#0095da"/></g><g transform="translate(-1195 -3213)"><rect width="8" height="8" rx="4" transform="translate(1501 3235)" fill="#0095da"/></g><g transform="translate(-1177 -3213)"><rect width="8" height="8" rx="4" transform="translate(1501 3235)" fill="#0095da"/></g><g transform="translate(-1159 -3213)"><rect width="8" height="8" rx="4" transform="translate(1501 3235)" fill="#0095da"/></g><g transform="translate(-1141 -3213)"><rect width="8" height="8" rx="4" transform="translate(1501 3235)" fill="#0095da"/></g><g transform="translate(-1123 -3213)"><rect width="8" height="8" rx="4" transform="translate(1501 3235)" fill="#0095da"/></g></g></g></svg>